<?xml version="1.0" standalone="no"?>
<!DOCTYPE svg PUBLIC "-//W3C//DTD SVG 20010904//EN"
 "http://www.w3.org/TR/2001/REC-SVG-20010904/DTD/svg10.dtd">
<svg version="1.0" xmlns="http://www.w3.org/2000/svg"
 width="280.000000pt" height="160.000000pt" viewBox="0 0 280.000000 160.000000"
 preserveAspectRatio="xMidYMid meet">

<g transform="translate(0.000000,160.000000) scale(0.100000,-0.100000)"
fill="#000000" stroke="none">
<path d="M550 1556 c0 -28 44 -153 75 -216 20 -40 55 -86 89 -118 54 -51 143
-102 179 -102 9 0 17 -4 17 -9 0 -10 -34 -21 -68 -21 -21 0 -21 -2 10 -28 109
-93 299 -173 447 -188 33 -4 61 -10 61 -13 0 -19 -168 -109 -234 -125 -30 -7
-26 -21 9 -28 15 -3 2 -14 -50 -41 -38 -20 -64 -36 -57 -37 7 0 47 17 90 39
88 44 122 56 122 44 0 -5 -36 -27 -80 -48 -44 -21 -80 -42 -80 -46 0 -4 37 11
83 33 107 53 121 58 195 74 124 26 237 93 329 195 24 26 44 39 62 39 38 0 121
24 185 53 99 45 198 134 254 228 l23 39 -23 0 c-21 0 -20 2 10 20 50 31 82
139 66 227 l-9 48 -27 -46 c-33 -57 -122 -143 -185 -181 -62 -36 -163 -68
-219 -68 -48 0 -49 0 -104 -87 -22 -35 -61 -83 -87 -108 l-47 -45 37 0 c77 0
177 71 177 125 0 24 33 55 59 55 8 0 22 -7 31 -15 10 -9 41 -15 85 -16 108 -4
115 -13 21 -27 l-85 -12 -63 -64 c-80 -80 -148 -109 -258 -109 -96 0 -172 28
-240 90 -49 44 -99 126 -113 184 -7 26 -8 26 -119 32 -208 11 -386 91 -520
235 -27 28 -48 45 -48 38z"/>
<path d="M2030 215 l0 -196 38 3 c37 3 37 4 40 50 5 76 23 78 68 8 38 -58 40
-60 83 -60 l43 0 -16 25 c-9 14 -24 37 -33 53 -24 39 -43 52 -77 52 -30 0 -30
1 42 73 39 40 72 76 72 80 0 4 -17 7 -38 7 -32 0 -45 -7 -87 -50 l-50 -51 -5
98 -5 98 -37 3 -38 3 0 -196z"/>
<path d="M592 389 c-59 -23 -83 -89 -55 -146 16 -33 27 -40 97 -65 81 -28 98
-41 89 -65 -14 -35 -94 -34 -147 0 -22 15 -24 14 -44 -13 l-22 -29 38 -23 c30
-19 51 -23 114 -23 71 0 79 2 107 29 26 25 31 37 31 77 0 40 -4 51 -30 73 -17
14 -50 30 -73 36 -86 22 -112 44 -87 75 16 19 61 19 107 0 38 -16 39 -16 64
28 21 38 -123 73 -189 46z"/>
<path d="M970 345 c0 -24 -5 -35 -15 -35 -10 0 -15 -11 -15 -35 0 -23 5 -35
14 -35 11 0 15 -21 18 -89 4 -106 19 -131 79 -131 56 0 69 8 69 42 0 26 -3 30
-21 25 -42 -11 -49 1 -49 79 l0 74 35 0 c32 0 35 2 35 30 0 38 -21 39 -49 3
l-20 -28 -1 68 0 67 -40 0 c-39 0 -40 -1 -40 -35z"/>
<path d="M1330 291 c-47 -25 -71 -61 -77 -112 -16 -161 215 -224 290 -79 36
69 1 167 -69 196 -46 19 -103 17 -144 -5z m133 -73 c27 -32 23 -92 -9 -117
-15 -12 -37 -21 -49 -21 -12 0 -34 9 -49 21 -21 16 -26 29 -26 63 0 78 83 112
133 54z"/>
<path d="M1717 303 c-4 -3 -7 -69 -7 -145 l0 -138 40 0 40 0 0 105 0 105 45 0
45 0 0 40 c0 49 -20 53 -62 13 l-28 -27 0 27 c0 24 -4 27 -33 27 -19 0 -37 -3
-40 -7z"/>
</g>
</svg>
