<svg width="188" height="158" viewBox="0 0 188 158" fill="none" xmlns="http://www.w3.org/2000/svg">
<g filter="url(#filter0_d_1_53)">
<path d="M8 2.40002C8 5.20002 12.4 17.7 15.5 24C17.5 28 21 32.6 24.4 35.8C29.8 40.9 38.7 46 42.3 46C43.2 46 44 46.4 44 46.9C44 47.9 40.6 49 37.2 49C35.1 49 35.1 49.2 38.2 51.8C49.1 61.1 68.1 69.1 82.9 70.6C86.2 71 89 71.6 89 71.9C89 73.8 72.2 82.8 65.6 84.4C62.6 85.1 63 86.5 66.5 87.2C68 87.5 66.7 88.6 61.5 91.3C57.7 93.3 55.1 94.9 55.8 95C56.5 95 60.5 93.3 64.8 91.1C73.6 86.7 77 85.5 77 86.7C77 87.2 73.4 89.4 69 91.5C64.6 93.6 61 95.7 61 96.1C61 96.5 64.7 95 69.3 92.8C80 87.5 81.4 87 88.8 85.4C101.2 82.8 112.5 76.1 121.7 65.9C124.1 63.3 126.1 62 127.9 62C131.7 62 140 59.6 146.4 56.7C156.3 52.2 166.2 43.3 171.8 33.9L174.1 30H171.8C169.7 30 169.8 29.8 172.8 28C177.8 24.9 181 14.1 179.4 5.30002L178.5 0.500018L175.8 5.10002C172.5 10.8 163.6 19.4 157.3 23.2C151.1 26.8 141 30 135.4 30C130.6 30 130.5 30 125 38.7C122.8 42.2 118.9 47 116.3 49.5L111.6 54H115.3C123 54 133 46.9 133 41.5C133 39.1 136.3 36 138.9 36C139.7 36 141.1 36.7 142 37.5C143 38.4 146.1 39 150.5 39.1C161.3 39.5 162 40.4 152.6 41.8L144.1 43L137.8 49.4C129.8 57.4 123 60.3 112 60.3C102.4 60.3 94.8 57.5 88 51.3C83.1 46.9 78.1 38.7 76.7 32.9C76 30.3 75.9 30.3 64.8 29.7C44 28.6 26.2 20.6 12.8 6.20002C10.1 3.40002 8 1.70002 8 2.40002Z" fill="white"/>
<path d="M156 136.5V156.1L159.8 155.8C163.5 155.5 163.5 155.4 163.8 150.8C164.3 143.2 166.1 143 170.6 150C174.4 155.8 174.6 156 178.9 156H183.2L181.6 153.5C180.7 152.1 179.2 149.8 178.3 148.2C175.9 144.3 174 143 170.6 143C167.6 143 167.6 142.9 174.8 135.7C178.7 131.7 182 128.1 182 127.7C182 127.3 180.3 127 178.2 127C175 127 173.7 127.7 169.5 132L164.5 137.1L164 127.3L163.5 117.5L159.8 117.2L156 116.9V136.5Z" fill="#FCFCFC"/>
<path d="M12.2 119.1C6.3 121.4 3.9 128 6.7 133.7C8.3 137 9.4 137.7 16.4 140.2C24.5 143 26.2 144.3 25.3 146.7C23.9 150.2 15.9 150.1 10.6 146.7C8.4 145.2 8.2 145.3 6.2 148L4 150.9L7.8 153.2C10.8 155.1 12.9 155.5 19.2 155.5C26.3 155.5 27.1 155.3 29.9 152.6C32.5 150.1 33 148.9 33 144.9C33 140.9 32.6 139.8 30 137.6C28.3 136.2 25 134.6 22.7 134C14.1 131.8 11.5 129.6 14 126.5C15.6 124.6 20.1 124.6 24.7 126.5C28.5 128.1 28.6 128.1 31.1 123.7C33.2 119.9 18.8 116.4 12.2 119.1Z" fill="#FCFCFC"/>
<path d="M50 123.5C50 125.9 49.5 127 48.5 127C47.5 127 47 128.1 47 130.5C47 132.8 47.5 134 48.4 134C49.5 134 49.9 136.1 50.2 142.9C50.6 153.5 52.1 156 58.1 156C63.7 156 65 155.2 65 151.8C65 149.2 64.7 148.8 62.9 149.3C58.7 150.4 58 149.2 58 141.4V134H61.5C64.7 134 65 133.8 65 131C65 127.2 62.9 127.1 60.1 130.7L58.1 133.5L58 126.7V120H54C50.1 120 50 120.1 50 123.5Z" fill="#FCFCFC"/>
<path d="M86 128.9C81.3 131.4 78.9 135 78.3 140.1C76.7 156.2 99.8 162.5 107.3 148C110.9 141.1 107.4 131.3 100.4 128.4C95.8 126.5 90.1 126.7 86 128.9ZM99.3 136.2C102 139.4 101.6 145.4 98.4 147.9C96.9 149.1 94.7 150 93.5 150C92.3 150 90.1 149.1 88.6 147.9C86.5 146.3 86 145 86 141.6C86 133.8 94.3 130.4 99.3 136.2Z" fill="#FCFCFC"/>
<path d="M124.7 127.7C124.3 128 124 134.6 124 142.2V156H128H132V145.5V135H136.5H141V131C141 126.1 139 125.7 134.8 129.7L132 132.4V129.7C132 127.3 131.6 127 128.7 127C126.8 127 125 127.3 124.7 127.7Z" fill="#FCFCFC"/>
</g>
<defs>
<filter id="filter0_d_1_53" x="0" y="0.500031" width="187.2" height="163.627" filterUnits="userSpaceOnUse" color-interpolation-filters="sRGB">
<feFlood flood-opacity="0" result="BackgroundImageFix"/>
<feColorMatrix in="SourceAlpha" type="matrix" values="0 0 0 0 0 0 0 0 0 0 0 0 0 0 0 0 0 0 127 0" result="hardAlpha"/>
<feOffset dy="4"/>
<feGaussianBlur stdDeviation="2"/>
<feComposite in2="hardAlpha" operator="out"/>
<feColorMatrix type="matrix" values="0 0 0 0 0 0 0 0 0 0 0 0 0 0 0 0 0 0 0.25 0"/>
<feBlend mode="normal" in2="BackgroundImageFix" result="effect1_dropShadow_1_53"/>
<feBlend mode="normal" in="SourceGraphic" in2="effect1_dropShadow_1_53" result="shape"/>
</filter>
</defs>
</svg>
