<svg width="180" height="156" viewBox="0 0 180 156" fill="none" xmlns="http://www.w3.org/2000/svg">
<path d="M4 1.89993C4 4.69993 8.4 17.1999 11.5 23.4999C13.5 27.4999 17 32.0999 20.4 35.2999C25.8 40.3999 34.7 45.4999 38.3 45.4999C39.2 45.4999 40 45.8999 40 46.3999C40 47.3999 36.6 48.4999 33.2 48.4999C31.1 48.4999 31.1 48.6999 34.2 51.2999C45.1 60.5999 64.1 68.5999 78.9 70.0999C82.2 70.4999 85 71.0999 85 71.3999C85 73.2999 68.2 82.2999 61.6 83.8999C58.6 84.5999 59 85.9999 62.5 86.6999C64 86.9999 62.7 88.0999 57.5 90.7999C53.7 92.7999 51.1 94.3999 51.8 94.4999C52.5 94.4999 56.5 92.7999 60.8 90.5999C69.6 86.1999 73 84.9999 73 86.1999C73 86.6999 69.4 88.8999 65 90.9999C60.6 93.0999 57 95.1999 57 95.5999C57 95.9999 60.7 94.4999 65.3 92.2999C76 86.9999 77.4 86.4999 84.8 84.8999C97.2 82.2999 108.5 75.5999 117.7 65.3999C120.1 62.7999 122.1 61.4999 123.9 61.4999C127.7 61.4999 136 59.0999 142.4 56.1999C152.3 51.6999 162.2 42.7999 167.8 33.3999L170.1 29.4999H167.8C165.7 29.4999 165.8 29.2999 168.8 27.4999C173.8 24.3999 177 13.5999 175.4 4.79993L174.5 -7.36436e-05L171.8 4.59993C168.5 10.2999 159.6 18.8999 153.3 22.6999C147.1 26.2999 137 29.4999 131.4 29.4999C126.6 29.4999 126.5 29.4999 121 38.1999C118.8 41.6999 114.9 46.4999 112.3 48.9999L107.6 53.4999H111.3C119 53.4999 129 46.3999 129 40.9999C129 38.5999 132.3 35.4999 134.9 35.4999C135.7 35.4999 137.1 36.1999 138 36.9999C139 37.8999 142.1 38.4999 146.5 38.5999C157.3 38.9999 158 39.8999 148.6 41.2999L140.1 42.4999L133.8 48.8999C125.8 56.8999 119 59.7999 108 59.7999C98.4 59.7999 90.8 56.9999 84 50.7999C79.1 46.3999 74.1 38.1999 72.7 32.3999C72 29.7999 71.9 29.7999 60.8 29.1999C40 28.0999 22.2 20.0999 8.8 5.69993C6.1 2.89993 4 1.19993 4 1.89993Z" fill="#FF4A4A"/>
<path d="M152 136V155.6L155.8 155.3C159.5 155 159.5 154.9 159.8 150.3C160.3 142.7 162.1 142.5 166.6 149.5C170.4 155.3 170.6 155.5 174.9 155.5H179.2L177.6 153C176.7 151.6 175.2 149.3 174.3 147.7C171.9 143.8 170 142.5 166.6 142.5C163.6 142.5 163.6 142.4 170.8 135.2C174.7 131.2 178 127.6 178 127.2C178 126.8 176.3 126.5 174.2 126.5C171 126.5 169.7 127.2 165.5 131.5L160.5 136.6L160 126.8L159.5 117L155.8 116.7L152 116.4V136Z" fill="#FF4A4A"/>
<path d="M8.2 118.6C2.3 120.9 -0.1 127.5 2.7 133.2C4.3 136.5 5.4 137.2 12.4 139.7C20.5 142.5 22.2 143.8 21.3 146.2C19.9 149.7 11.9 149.6 6.6 146.2C4.4 144.7 4.2 144.8 2.2 147.5L0 150.4L3.8 152.7C6.8 154.6 8.9 155 15.2 155C22.3 155 23.1 154.8 25.9 152.1C28.5 149.6 29 148.4 29 144.4C29 140.4 28.6 139.3 26 137.1C24.3 135.7 21 134.1 18.7 133.5C10.1 131.3 7.5 129.1 10 126C11.6 124.1 16.1 124.1 20.7 126C24.5 127.6 24.6 127.6 27.1 123.2C29.2 119.4 14.8 115.9 8.2 118.6Z" fill="#FF4A4A"/>
<path d="M46 123C46 125.4 45.5 126.5 44.5 126.5C43.5 126.5 43 127.6 43 130C43 132.3 43.5 133.5 44.4 133.5C45.5 133.5 45.9 135.6 46.2 142.4C46.6 153 48.1 155.5 54.1 155.5C59.7 155.5 61 154.7 61 151.3C61 148.7 60.7 148.3 58.9 148.8C54.7 149.9 54 148.7 54 140.9V133.5H57.5C60.7 133.5 61 133.3 61 130.5C61 126.7 58.9 126.6 56.1 130.2L54.1 133L54 126.2V119.5H50C46.1 119.5 46 119.6 46 123Z" fill="#FF4A4A"/>
<path d="M82 128.4C77.3 130.9 74.9 134.5 74.3 139.6C72.7 155.7 95.8 162 103.3 147.5C106.9 140.6 103.4 130.8 96.4 127.9C91.8 126 86.1 126.2 82 128.4ZM95.3 135.7C98 138.9 97.6 144.9 94.4 147.4C92.9 148.6 90.7 149.5 89.5 149.5C88.3 149.5 86.1 148.6 84.6 147.4C82.5 145.8 82 144.5 82 141.1C82 133.3 90.3 129.9 95.3 135.7Z" fill="#FF4A4A"/>
<path d="M120.7 127.2C120.3 127.5 120 134.1 120 141.7V155.5H124H128V145V134.5H132.5H137V130.5C137 125.6 135 125.2 130.8 129.2L128 131.9V129.2C128 126.8 127.6 126.5 124.7 126.5C122.8 126.5 121 126.8 120.7 127.2Z" fill="#FF4A4A"/>
</svg>
